<?xml version="1.0" encoding="utf-8"?>
<!-- Generator: Adobe Illustrator 25.3.1, SVG Export Plug-In . SVG Version: 6.00 Build 0)  -->
<svg version="1.1" id="Layer_1" xmlns="http://www.w3.org/2000/svg" xmlns:xlink="http://www.w3.org/1999/xlink" x="0px" y="0px"
	 viewBox="0 0 32 32" style="enable-background:new 0 0 32 32;" xml:space="preserve">
<style type="text/css">
	.st0{fill:#222222;}
</style>
<g id="icon">
	<path class="st0" d="M27.6,22.2c0,2.9-2.3,5.2-5.2,5.2c-2.9,0-5.2-2.3-5.2-5.2c0-2.9,2.3-5.2,5.2-5.2l0,0
		C25.2,17,27.6,19.4,27.6,22.2z"/>
	<path class="st0" d="M4.5,17h10.4v10.4C9.2,27.4,4.5,22.8,4.5,17z"/>
	<path class="st0" d="M7.6,7.4c1.9-1.9,4.6-3,7.3-3v10.4H4.5C4.5,12,5.6,9.4,7.6,7.4z"/>
	<path class="st0" d="M24.5,11.7c-1.9,1.9-4.6,3-7.3,3V4.4h10.4C27.6,7.1,26.5,9.8,24.5,11.7z"/>
</g>
</svg>
